# xmcd
#
# Track frame offsets:
#	150
#	14226
#	29593
#	42772
#	58118
#	68644
#	81651
#	90978
#	104269
#	121040
#	131843
#	142805
#	161854
#
# Disc length: 2264 seconds
#
# Revision: 0
# Processed by: cddbd v1.5.2PL0 Copyright (c) Steve Scherf et al.
# Submitted via: dBpowerAMP V4.0
#
DISCID=b308d60d
DTITLE=Bluegrass Incorporated - Back on My Mind
DYEAR=1900
DGENRE=Bluegrass
TTITLE0=Back on my Mind Again
TTITLE1=Wonder Where You Are Tonight
TTITLE2=Please Search Your Heart
TTITLE3=Lord, I Hope This Day is Good
TTITLE4=Cherokee Shuffle
TTITLE5=The Pain of Loving You
TTITLE6=Leaves That Are Green
TTITLE7=The Door is Always Open
TTITLE8=He's My Guide
TTITLE9=Booger Bear Breakdown
TTITLE10=Blue Bonnet Lane
TTITLE11=In the Shadows
TTITLE12=I Ain't Broke
EXTD=
EXTT0=
EXTT1=
EXTT2=
EXTT3=
EXTT4=
EXTT5=
EXTT6=
EXTT7=
EXTT8=
EXTT9=
EXTT10=
EXTT11=
EXTT12=
PLAYORDER=
